# Blender v2.80 (sub 37) OBJ File: ''
# www.blender.org
mtllib car filled.mtl
o trueno2
v 0.000008 0.030835 -1.255078
v 0.000008 0.404720 -1.354973
v 0.535044 0.401364 -1.332326
v 0.439198 0.030835 -1.250012
v 0.000008 0.460092 -1.302024
v 0.553744 0.459224 -1.298981
v 0.409197 0.655950 -0.599551
v 0.577473 0.427048 -0.517742
v -0.001635 0.339371 1.707487
v 0.000008 -0.071550 1.609474
v 0.492595 -0.071446 1.534165
v 0.557563 0.306491 1.628838
v 0.000008 0.689122 -0.625441
v -0.000697 0.726782 0.201866
v 0.398436 0.690790 0.131681
v 0.000008 0.407173 0.671631
v 0.538765 0.405823 0.567981
v -0.014197 0.440806 1.328205
v 0.553386 0.405598 1.285658
v 0.672974 0.107420 -0.931578
v 0.672974 -0.034781 -0.967450
v 0.670973 -0.097035 1.051791
v 0.670973 0.089399 1.029772
v 0.670973 0.195661 0.814436
v 0.670973 0.082582 0.645863
v 0.670973 -0.094925 0.637420
v 0.672974 -0.093369 -0.563899
v 0.672974 0.058668 -0.572297
v 0.672974 0.192465 -0.747176
v 0.514676 0.433502 -0.514262
v 0.475968 0.412277 0.571460
v 0.476791 0.389224 -0.493727
v 0.438083 0.367999 0.591996
v 0.513499 0.028671 -0.379874
v 0.474791 0.007446 0.705849
v 0.620689 -0.072200 -0.428424
v 0.581981 -0.093425 0.657299
v 0.414087 0.636881 -0.610318
v -0.007695 0.671074 -0.637004
v -0.008422 0.709893 0.215764
v 0.402995 0.672793 0.143419
v 0.027451 -0.004715 0.807484
v 0.566208 -0.006065 0.703834
v 0.023236 -0.087507 0.760661
v 0.561993 -0.088857 0.657011
v 0.604393 -0.016907 -0.390427
v 0.651578 -0.023130 -0.943291
v -0.156270 0.050668 -1.233211
v 0.441450 0.048298 -1.223087
v -0.156270 0.033046 -1.255603
v 0.441450 0.030676 -1.245479
v 0.629307 -0.045784 -0.985191
v -0.156270 -0.120418 0.823582
v 0.382487 -0.121768 0.719932
v -0.156270 0.012555 0.875822
v 0.382487 0.011205 0.772172
v -0.156270 0.411473 0.766594
v 0.382487 0.410123 0.662944
v 0.398436 0.690790 0.131681
v 0.538765 0.405823 0.567981
v 0.403544 0.689907 0.109217
v 0.543873 0.404940 0.545517
v 0.388727 0.683805 0.064522
v 0.529056 0.398838 0.500822
v 0.359412 0.692635 0.136248
v 0.499742 0.407668 0.572548
v -0.156270 0.417864 -1.332036
v 0.527679 0.417029 -1.312013
v -0.156270 0.400242 -1.354427
v 0.527679 0.399407 -1.334404
v 0.400267 0.642369 -0.553993
v 0.577473 0.427048 -0.517742
v 0.397739 0.646738 -0.609648
v 0.574410 0.427048 -0.578477
v 0.357849 0.645808 -0.607909
v 0.539121 0.401742 -0.576697
v 0.360377 0.641439 -0.552254
v 0.542184 0.401742 -0.515962
vn -1.0000 0.0000 0.0000
vn -0.7745 -0.6141 -0.1520
vn -0.9496 0.0119 0.3132
vn 0.7123 0.6702 0.2086
vn -0.1011 -0.8475 -0.5211
vn 0.9701 -0.1907 0.1501
vn 0.7767 0.6297 -0.0137
vn -0.8008 -0.5988 0.0160
vn -0.0198 0.9967 0.0791
vn -0.0068 0.1522 0.9883
vn 0.0001 -0.1332 -0.9911
vn 0.5815 -0.8130 -0.0293
vn 0.0268 -0.2409 -0.9702
vn 0.0211 0.6038 -0.7969
vn 0.7523 0.3903 -0.5307
vn 0.7049 0.4213 -0.5706
vn 0.1329 -0.2452 0.9603
vn 0.4051 -0.8121 0.4201
vn -0.5629 -0.7291 0.3893
vn -0.5784 -0.7558 -0.3068
vn -0.0827 -0.9955 0.0457
vn 0.0600 0.9900 0.1274
vn 0.0865 0.9605 0.2646
vn 0.0579 0.9914 0.1170
vn 0.8466 0.5290 -0.0585
vn 0.8179 0.5731 0.0516
vn 0.9770 0.2106 0.0327
vn 0.9784 0.2066 -0.0087
vn -0.2920 0.9564 0.0083
vn -0.4384 0.8988 0.0019
vn 0.0298 0.9993 -0.0243
vn -0.9251 0.3788 -0.0256
vn -0.9801 0.1961 -0.0311
vn -0.8957 -0.4428 -0.0406
vn -0.8968 -0.4405 -0.0406
vn -0.3465 -0.9378 -0.0217
vn -0.5020 -0.8644 -0.0294
vn -0.1722 -0.9850 -0.0129
vn 0.9733 0.1286 -0.1902
vn 0.9800 0.1759 0.0928
vn 0.6304 0.3186 0.7079
vn 0.0827 0.9955 -0.0457
vn -0.6374 0.3923 -0.6632
vn -0.6160 0.4329 0.6581
vn 0.5433 -0.6675 -0.5092
vn 0.4192 -0.6835 -0.5976
vn -0.1798 -0.3189 -0.9306
vn -0.1877 0.1027 -0.9769
vn -0.1880 0.0866 -0.9783
vn -0.0708 0.9051 -0.4192
vn -0.0860 0.8660 -0.4925
vn -0.0492 -0.9958 -0.0769
vn 0.0619 -0.8913 0.4491
vn 0.0908 -0.8116 0.5771
vn -0.0163 -0.7622 -0.6471
vn -0.0211 -0.8107 -0.5851
vn 0.0273 0.9974 0.0674
vn 0.0064 0.8165 0.5773
vn 0.0020 0.7516 0.6596
vn 0.1885 -0.0552 0.9805
vn 0.1886 -0.0502 0.9808
vn 0.0739 0.9253 0.3721
vn 0.1698 0.4497 0.8769
vn -0.0091 0.9982 -0.0601
vn -0.0025 0.9521 0.3058
vn -0.0003 0.9750 0.2224
vn 0.0244 0.3694 -0.9290
vn 0.0246 0.3174 -0.9480
usemtl None
s off
f 50//1 48//1 67//1 69//1
f 60//2 59//2 61//2 62//2
f 62//3 61//3 63//3 64//3
f 64//4 63//4 65//4 66//4
f 60//5 66//5 65//5 59//5
f 49//6 51//6 70//6 68//6
f 72//7 74//7 73//7 71//7
f 78//8 77//8 75//8 76//8
f 71//9 73//9 75//9 77//9
f 72//10 71//10 77//10 78//10
f 73//11 74//11 76//11 75//11
f 74//12 72//12 78//12 76//12
s 1
f 1//13 2//13 3//13 4//13
f 5//14 6//15 3//16 2//14
f 9//17 10//17 11//17 12//17
f 13//18 7//19 15//20 14//21
f 18//22 9//23 12//23 19//24
f 8//25 17//26 26//27 27//28
f 17//26 8//25 30//29 31//30
f 16//31 18//22 19//24 17//31
f 31//30 30//29 32//32 33//33
f 33//33 32//32 34//34 35//35
f 35//35 34//34 36//36 37//37
f 26//38 37//37 36//36 27//38
f 4//39 3//16 6//15 8//25 27//28 28//39 29//39 20//39 21//39
f 12//40 11//40 22//40 23//40 24//40 25//40 26//27 17//26 19//40
f 39//41 40//42 41//43 38//44
f 15//20 7//19 38//44 41//43
f 13//18 14//45 40//46 39//41
f 14//45 15//20 41//43 40//46
f 7//19 13//18 39//41 38//44
f 16//47 17//47 43//48 42//49
f 42//49 43//48 45//50 44//51
f 52//52 54//53 53//54 50//55 51//56
f 47//57 49//58 48//59 44//51 45//50 46//57
f 53//54 54//53 56//60 55//61
f 55//61 56//60 58//62 57//63
f 17//64 16//64 57//63 58//62
f 67//65 68//66 70//67 69//68
f 48//59 49//58 68//66 67//65
f 51//56 50//55 69//68 70//67
