# Blender v2.80 (sub 39) OBJ File: ''
# www.blender.org
mtllib car 3.mtl
o trueno2
v -0.002820 -0.008548 -1.185209
v -0.002820 0.726284 -1.075791
v -0.002820 1.079262 -0.937541
v -0.002820 -0.122621 1.473110
v -0.002820 0.594859 0.601218
v 0.381497 -0.019089 -1.138561
v 0.636274 -0.046447 -0.818863
v 0.432566 0.748429 -0.931852
v 0.451535 0.700158 -0.978687
v 0.276592 1.043473 -0.876327
v 0.706023 0.214097 0.798610
v 0.651714 0.126821 0.956283
v 0.388030 0.315954 1.317987
v 0.710032 -0.077452 -0.291722
v 0.511569 0.580130 0.478479
v 0.370203 1.007552 0.074693
v 0.695283 -0.064787 0.525138
v 0.728171 0.167693 0.610146
v 0.736661 0.258575 -0.375595
v -0.002820 0.320452 1.379807
v 0.410010 -0.118335 1.394435
v 0.582298 -0.121642 1.021347
v -0.002820 1.029809 0.152323
v 0.490846 0.510356 0.906791
v -0.002820 0.532077 0.982354
v -0.002820 0.705638 -1.115218
v 0.390011 0.724379 -0.995955
v 0.713477 0.270540 -0.716706
v 0.529415 0.599218 0.520610
v -0.002820 0.611961 0.628401
v 0.558784 0.573464 0.503656
v 0.563118 0.548196 0.456491
v 0.500826 0.713876 -0.920954
v 0.514511 -0.130094 1.080238
v 0.629638 0.268812 0.787615
v 0.585106 0.157491 0.997893
v 0.642768 0.217439 0.588572
v 0.651987 -0.066484 0.476445
v 0.390704 1.027886 -0.340112
v -0.002820 1.091800 -0.305743
v 0.611868 0.600573 -0.350123
v 0.522228 0.642226 -0.351003
v 0.677977 0.312709 -0.323127
v 0.637059 0.316738 -0.738412
v 0.560530 0.316361 -0.881392
v -0.002820 0.297513 -1.163537
v 0.391676 0.308369 -1.102772
v 0.675446 -0.065754 -0.253075
vn 0.7447 0.1428 -0.6519
vn -0.6042 -0.0607 -0.7945
vn -0.5189 -0.6862 -0.5098
vn -0.5577 -0.8154 0.1550
vn -0.5383 -0.2789 0.7953
vn 0.8427 0.0735 -0.5334
vn 0.9615 0.2477 -0.1187
vn -0.9993 -0.0078 -0.0362
vn 0.7189 0.1076 -0.6867
vn 0.7872 0.0510 -0.6145
vn 0.5910 0.8060 -0.0330
vn 0.7343 0.1142 0.6692
vn 0.2172 0.5812 -0.7842
vn 0.1792 0.7095 -0.6815
vn 0.2526 0.7723 -0.5829
vn 0.2506 0.7847 -0.5670
vn 0.1691 0.1913 0.9669
vn 0.1357 0.9897 0.0449
vn 0.1250 0.9875 0.0961
vn 0.1362 0.9898 0.0422
vn 0.1838 0.7062 0.6837
vn 0.0491 0.9965 0.0679
vn 0.0554 0.9939 0.0952
vn -0.7235 -0.6894 -0.0339
vn -0.6930 -0.7175 -0.0705
vn -0.9401 -0.3377 -0.0459
vn -0.9285 -0.3692 0.0405
vn 0.0833 0.9433 0.3214
vn 0.0867 0.9316 0.3529
vn 0.0971 0.8844 0.4564
vn 0.8514 0.4910 -0.1845
vn 0.3591 0.8131 -0.4582
vn 0.7504 0.6584 -0.0574
vn 0.7971 0.5904 -0.1269
vn 0.1737 0.1333 -0.9757
vn 0.1764 0.1365 -0.9748
vn 0.1361 0.0873 -0.9868
vn 0.1521 0.7004 -0.6974
vn 0.1783 0.5555 -0.8122
vn -0.0043 0.9912 -0.1325
vn 0.0082 0.9971 -0.0756
vn -0.6758 -0.7318 -0.0877
vn -0.7887 -0.6095 -0.0802
vn -0.4405 -0.7083 0.5516
vn -0.4545 -0.8828 0.1186
vn -0.6492 -0.7113 0.2694
vn 0.9016 0.1531 0.4045
vn 0.9059 0.0319 0.4222
vn 0.8955 0.2048 0.3950
vn 0.8751 0.3780 0.3021
vn 0.9155 0.3390 0.2168
vn -0.9099 -0.3963 0.1228
vn 0.9734 0.2291 -0.0023
vn -0.9670 -0.2454 -0.0683
usemtl None
s off
f 7//1 45//1 44//1 28//1
f 34//2 36//2 12//2 22//2
f 11//3 12//3 36//3 35//3
f 18//4 11//4 35//4 37//4
f 18//5 37//5 38//5 17//5
f 33//6 44//6 45//6 9//6
f 33//7 41//7 43//7 44//7
f 38//8 37//8 43//8 48//8
f 9//9 45//9 47//9 27//9
f 6//10 47//10 45//10 7//10
f 28//11 44//11 43//11 19//11
f 48//12 14//12 19//12 43//12
s 1
f 8//13 2//14 3//15 10//16
f 20//17 4//17 21//17 13//17
f 40//18 23//19 16//19 39//20
f 23//21 5//22 15//23 16//21
f 42//24 15//25 16//26 39//27
f 24//28 25//29 20//30 13//30
f 32//31 15//32 29//33 31//34
f 46//35 47//36 6//37 1//37
f 2//14 8//13 27//38 26//39
f 29//40 15//23 5//22 30//41
f 24//28 29//40 30//41 25//29
f 41//42 32//43 15//25 42//24
f 27//44 9//44 33//45 8//46
f 13//47 21//48 34//48 36//49
f 24//50 13//47 36//49 35//51
f 33//45 41//42 42//24 8//46
f 8//46 42//24 39//27 10//52
f 3//15 40//18 39//20 10//16
f 24//50 35//51 31//34 29//33
f 32//31 31//34 35//51 37//53
f 41//42 43//54 37//54 32//43
f 26//39 27//38 47//36 46//35
