# Blender v2.80 (sub 39) OBJ File: ''
# www.blender.org
mtllib car.mtl
o trueno2
v 0.000008 0.030835 -1.255078
v 0.000008 0.404720 -1.354973
v 0.000008 0.460092 -1.302024
v 0.000008 0.689122 -0.625441
v 0.000008 -0.071550 1.609474
v 0.000008 0.407173 0.671631
v 0.672974 -0.034781 -0.967450
v 0.439198 0.030835 -1.250012
v 0.535044 0.401364 -1.332326
v 0.672974 0.107420 -0.931578
v 0.553744 0.459224 -1.298981
v 0.672974 0.192465 -0.747176
v 0.577473 0.427048 -0.517742
v 0.409197 0.655950 -0.599551
v 0.670973 0.195661 0.814436
v 0.670973 0.089399 1.029772
v 0.557563 0.306491 1.628838
v 0.672974 -0.093369 -0.563899
v 0.538765 0.405823 0.567981
v 0.398436 0.690790 0.131681
v 0.670973 -0.094925 0.637420
v 0.670973 0.082582 0.645863
v 0.672974 0.058668 -0.572297
v -0.001635 0.339371 1.707487
v 0.492595 -0.071446 1.534165
v 0.670973 -0.097035 1.051791
v -0.000697 0.726782 0.201866
v 0.553386 0.405598 1.285658
v -0.014197 0.440806 1.328205
vn 0.0268 -0.2409 -0.9702
vn 0.0211 0.6038 -0.7969
vn 0.7927 0.4531 -0.4078
vn 0.7446 0.4836 -0.4601
vn -0.4460 -0.8781 0.1734
vn -0.2257 -0.9429 0.2448
vn -0.8057 -0.5923 0.0001
vn 0.1329 -0.2452 0.9603
vn 0.0827 0.9955 -0.0457
vn 0.1325 0.8339 0.5358
vn 0.0788 0.9690 0.2341
vn 0.0862 0.9577 0.2745
vn -0.8485 -0.5289 -0.0191
vn 0.0600 0.9900 0.1274
vn 0.0865 0.9605 0.2646
vn 0.0579 0.9914 0.1170
vn 0.9825 0.1859 -0.0065
vn -0.0425 -0.9557 0.2912
usemtl None
s 1
f 1//1 2//1 9//1 8//1
f 3//2 11//3 9//4 2//2
f 14//5 11//6 13//7
f 24//8 5//8 25//8 17//8
f 4//9 27//9 20//9 14//9
f 27//10 6//11 19//12 20//10
f 13//13 19//13 20//13 14//13
f 29//14 24//15 17//15 28//16
f 10//17 7//17 8//17 9//4 11//3 13//17 19//17 28//17 17//17 25//17 26//17 16//17 15//17 22//17 21//17 18//17 23//17 12//17
f 3//18 11//6 14//5 4//18
f 6//11 29//14 28//16 19//12
